# xmcd
#
# Track frame offsets: 
#        150
#        17366
#        33643
#        48318
#        73732
#        91532
#        110226
#        124293
#        144709
#        159390
#        176078
#        195372
#        210438
#        228334
#        253884
#
# Disc length: 3780 seconds
#
# Revision: 2
# Processed by: cddbd v1.5.2PL0 Copyright (c) Steve Scherf et al.
# Submitted via: ExactAudioCopy v1.3
#
DISCID=ce0ec20f
DTITLE=Goapele - Even Closer
DYEAR=2004
DGENRE=Soul
TTITLE0=Closer
TTITLE1=Ease Your Mind (Featuring Pep Love)
TTITLE2=Got It
TTITLE3=Romantic
TTITLE4=Too Much  The Same
TTITLE5=Catch 22
TTITLE6=The Daze (Featuring Zion I and Casual)
TTITLE7=Thing's Don't Exist
TTITLE8=Childhood Drama
TTITLE9=Salvation
TTITLE10=Back To You
TTITLE11=Butterflykisses
TTITLE12=It Takes More
TTITLE13=Red, White and Blues
TTITLE14=Childhood Drama (remix) BONUS
EXTD=My name is Erikka and this a submission for www.power-xm.com
EXTT0=
EXTT1=
EXTT2=
EXTT3=
EXTT4=
EXTT5=
EXTT6=
EXTT7=
EXTT8=
EXTT9=
EXTT10=
EXTT11=
EXTT12=
EXTT13=
EXTT14=
PLAYORDER=
